:SAMPLES-PER-SECOND 30
:FULLY-SPECIFIED
:DEGREES
706
root  1.79381 29.6921 -14.2211 -9.38037 -2.07336 74.969
Spine  -1.1773 -3.60346 -33.1318
Spine1  1.46489 10.4698 18.6422
Neck  3.97569e-016 0 -2.38542e-015
Head  -51.4411 0.0899633 38.5446
R_Clavicle  0.430019 -21.7826 3.95836
R_UpperArm  38.847 11.8994 24.8125
R_Forearm  12.5995 -42.8108 26.568
R_Hand  -1.34097 8.64657 -21.4617
L_Clavicle  -0.726821 27.4881 0.671484
L_UpperArm  -22.5672 14.2604 34.2477
L_Forearm  14.3643 42.7433 49.2967
L_Hand  0.107016 1.53765 1.7914
L_Thigh  -12.3752 0.901532 12.4154
L_Calf  -8.75921 -1.1288 7.84238
L_Foot  4.90682 12.6824 5.73482
L_Toe0  0.505156 0.037163 -6.13607
R_Thigh  22.9151 1.7208 -30.3172
R_Calf  8.15318 3.90812 12.5307
R_Foot  3.088 11.2726 25.6864
R_Toe0  -1.78883 -0.266743 -17.3239
707
root  1.34025 29.7495 -14.1354 -8.47461 -1.75024 76.517
Spine  -0.684776 -3.67914 -33.5226
Spine1  1.84049 9.99642 18.5687
Neck  3.97569e-016 0 -2.38542e-015
Head  -53.194 0.873983 38.0225
R_Clavicle  0.42971 -21.7892 3.91934
R_UpperArm  38.627 11.5544 24.1069
R_Forearm  11.3174 -43.0633 26.7599
R_Hand  -1.34355 8.75731 -21.4635
L_Clavicle  -0.714808 27.4978 0.784832
L_UpperArm  -22.8661 15.0645 34.743
L_Forearm  15.2052 43.1313 50.879
L_Hand  0.139088 1.53135 2.30705
L_Thigh  -12.3583 0.861873 12.4073
L_Calf  -8.03732 -1.59454 11.2882
L_Foot  4.92569 13.196 5.33218
L_Toe0  0.505156 0.0386918 -6.13606
R_Thigh  23.3251 1.78886 -30.1702
R_Calf  8.28689 4.32695 13.8659
R_Foot  3.3741 11.7728 25.3833
R_Toe0  -1.7888 -0.267314 -17.3238
708
root  0.822641 29.8236 -14.0071 -7.70947 -1.31302 78.1029
Spine  -0.220962 -3.67413 -33.6956
Spine1  2.13029 9.29618 18.3162
Neck  3.97569e-016 0 -2.38542e-015
Head  -54.8489 1.57042 37.1619
R_Clavicle  0.430191 -21.7452 3.85843
R_UpperArm  38.4344 10.9393 23.7219
R_Forearm  10.2153 -43.1139 26.7274
R_Hand  -1.28324 8.73341 -21.0604
L_Clavicle  -0.708528 27.4724 0.837628
L_UpperArm  -23.3255 15.7045 35.1978
L_Forearm  16.1837 43.3698 52.4269
L_Hand  0.163046 1.51398 2.696
L_Thigh  -12.6056 0.501035 12.4214
L_Calf  -7.93137 -1.97417 14.1818
L_Foot  5.11666 14.3239 4.95202
L_Toe0  0.505156 0.0401676 -6.13605
R_Thigh  23.4937 1.67392 -30.0994
R_Calf  8.45136 4.80596 15.4001
R_Foot  3.67916 12.3127 24.9649
R_Toe0  -1.78875 -0.26799 -17.3238
709
root  0.238802 29.906 -13.8388 -7.06934 -0.806793 79.8003
Spine  0.179411 -3.41828 -33.542
Spine1  2.26123 8.15686 17.5013
Neck  3.97569e-016 0 -2.38542e-015
Head  -56.4569 2.41891 36.0784
R_Clavicle  0.427703 -21.8912 3.81851
R_UpperArm  37.9098 10.1184 23.8239
R_Forearm  9.29871 -43.1211 26.3945
R_Hand  -1.22917 8.76365 -20.6982
L_Clavicle  -0.703131 27.3338 0.858208
L_UpperArm  -23.5786 16.1464 35.818
L_Forearm  16.8592 43.5295 53.5227
L_Hand  0.170425 1.43511 2.84188
L_Thigh  -13.8263 -0.00451249 13.1828
L_Calf  -9.34179 -2.09482 15.2274
L_Foot  5.50789 17.6612 3.42114
L_Toe0  0.505156 0.0415691 -6.13603
R_Thigh  23.5436 1.39837 -30.16
R_Calf  8.69705 5.37055 17.2201
R_Foot  4.0457 12.9733 24.4092
R_Toe0  -1.7887 -0.268775 -17.3237
710
root  -0.422066 29.9774 -13.6466 -6.33643 -0.332031 81.6492
Spine  0.530078 -3.2079 -33.1136
Spine1  2.31147 7.05423 16.0488
Neck  3.97569e-016 0 -2.38542e-015
Head  -58.0297 3.37125 34.8213
R_Clavicle  0.423762 -22.146 3.76829
R_UpperArm  37.0295 8.99898 24.4589
R_Forearm  8.44641 -43.1301 25.8706
R_Hand  -1.22284 8.92373 -20.6609
L_Clavicle  -0.698919 27.0495 0.836173
L_UpperArm  -23.6917 16.465 36.5814
L_Forearm  17.0355 43.5265 54.0537
L_Hand  0.186221 1.52334 3.06691
L_Thigh  -15.7719 -0.187163 14.0502
L_Calf  -9.93395 -2.12606 15.4947
L_Foot  4.52686 18.8501 -0.114973
L_Toe0  0.505156 0.0428747 -6.13602
R_Thigh  23.7082 1.13099 -30.3562
R_Calf  9.0535 6.01877 19.3407
R_Foot  4.46598 13.7485 23.7365
R_Toe0  -1.78865 -0.269675 -17.3237
711
root  -1.1699 30.0324 -13.427 -5.60742 0.141632 83.4077
Spine  0.899417 -3.13903 -32.3328
Spine1  2.41253 6.08391 14.2832
Neck  3.97569e-016 0 -2.38542e-015
Head  -59.4485 4.20232 33.2366
R_Clavicle  0.421139 -22.3238 3.66582
R_UpperArm  36.3059 7.47777 25.3717
R_Forearm  7.30677 -43.1103 25.4872
R_Hand  -1.22635 9.04778 -20.6782
L_Clavicle  -0.688726 26.559 0.824718
L_UpperArm  -23.9643 16.6667 37.1371
L_Forearm  16.6026 43.2203 54.0851
L_Hand  0.216099 1.80772 3.42222
L_Thigh  -17.7343 -0.491113 14.7392
L_Calf  -9.19429 -2.06875 15.011
L_Foot  4.1308 19.8512 -1.82326
L_Toe0  0.505156 0.0440629 -6.13601
R_Thigh  23.7561 0.845958 -30.8234
R_Calf  9.41359 6.72388 21.6932
R_Foot  4.85677 14.4919 23.0135
R_Toe0  -1.78858 -0.270696 -17.3236
712
root  -1.99116 30.101 -13.143 -5.43506 0.834839 84.7248
Spine  1.39184 -2.70138 -30.9483
Spine1  2.65346 4.40378 12.5108
Neck  3.97569e-016 0 -2.38542e-015
Head  -60.6074 4.74921 31.0733
R_Clavicle  0.419415 -22.467 3.5219
R_UpperArm  36.1728 5.63306 26.2996
R_Forearm  5.91004 -43.0891 25.4366
R_Hand  -1.19055 9.10115 -20.4218
L_Clavicle  -0.664772 25.8451 0.905962
L_UpperArm  -24.3502 16.5725 37.1819
L_Forearm  15.4128 42.7342 53.6801
L_Hand  0.22155 1.92539 3.45727
L_Thigh  -19.3819 -1.08035 14.88
L_Calf  -7.86014 -1.93234 13.9493
L_Foot  4.48661 20.0866 -1.00615
L_Toe0  0.505156 0.0451122 -6.136
R_Thigh  23.181 0.121114 -31.916
R_Calf  9.69748 7.54265 24.4635
R_Foot  5.17903 15.1419 22.1231
R_Toe0  -1.80023 -0.27205 -17.3302
713
root  -2.86162 30.2131 -12.7678 -6.25439 1.8064 85.5554
Spine  2.07073 -1.31564 -28.9341
Spine1  3.06915 1.26864 10.7508
Neck  3.97569e-016 0 -2.38542e-015
Head  -61.4912 4.96243 28.3597
R_Clavicle  0.41678 -22.7343 3.35963
R_UpperArm  36.4026 3.6462 27.2371
R_Forearm  4.90979 -43.2135 25.6444
R_Hand  -1.13956 9.24084 -20.0628
L_Clavicle  -0.634112 25.0235 1.05392
L_UpperArm  -24.5793 16.034 36.7486
L_Forearm  13.6474 42.3522 53.0033
L_Hand  0.175222 1.65219 2.84875
L_Thigh  -21.0192 -1.90771 14.2354
L_Calf  -7.3836 -1.80224 12.9829
L_Foot  5.24648 19.6822 1.28787
L_Toe0  0.505156 0.046001 -6.136
R_Thigh  21.9099 -1.30355 -33.4801
R_Calf  10.4808 8.40513 27.427
R_Foot  5.12483 15.104 20.8565
R_Toe0  -1.73209 -0.27051 -17.3559
714
root  -3.75979 30.3659 -12.3278 -7.92725 2.77939 86.1547
Spine  2.90603 0.87196 -26.617
Spine1  3.62353 -2.85573 8.9458
Neck  3.97569e-016 0 -2.38542e-015
Head  -62.0451 4.7449 25.5729
R_Clavicle  0.415006 -23.038 3.13095
R_UpperArm  36.6275 1.6767 28.1387
R_Forearm  4.23419 -43.8281 26.2232
R_Hand  -1.11951 9.42762 -19.9326
L_Clavicle  -0.609261 24.249 1.16943
L_UpperArm  -24.6975 15.2118 35.976
L_Forearm  11.8618 42.1449 52.3791
L_Hand  0.105563 1.15546 1.84934
L_Thigh  -22.7643 -2.73114 13.0678
L_Calf  -7.98256 -1.73615 12.5212
L_Foot  5.87857 18.9697 3.47797
L_Toe0  0.505156 0.046708 -6.13599
R_Thigh  20.1124 -3.31154 -34.1748
R_Calf  11.5837 8.72783 28.5426
R_Foot  4.63833 14.3255 18.5936
R_Toe0  -0.900987 -0.267539 -16.3628
715
root  -4.65469 30.5412 -11.8773 -9.97607 3.52414 86.6694
Spine  3.77877 2.91595 -24.39
Spine1  4.20439 -6.596 7.24067
Neck  3.97569e-016 0 -2.38542e-015
Head  -62.0674 3.91222 23.3147
R_Clavicle  0.417893 -23.0419 2.76213
R_UpperArm  36.8211 -0.038412 28.6147
R_Forearm  2.44759 -45.1873 27.6081
R_Hand  -1.07814 9.45628 -19.6439
L_Clavicle  -0.594417 23.5848 1.19677
L_UpperArm  -25.0074 14.4942 34.8561
L_Forearm  10.4545 41.971 52.0913
L_Hand  0.0496327 0.655362 0.943174
L_Thigh  -24.4461 -3.4168 11.6913
L_Calf  -8.78842 -1.73527 12.563
L_Foot  6.26482 18.278 5.03734
L_Toe0  0.505156 0.0472115 -6.13598
R_Thigh  17.644 -5.92167 -33.5353
R_Calf  9.70931 8.33172 27.1071
R_Foot  5.64152 16.8121 13.8127
R_Toe0  0.992859 -0.339697 -11.8575
